<?xml version="1.0" encoding="utf-8"?>
<!-- Generator: Adobe Illustrator 23.1.0, SVG Export Plug-In . SVG Version: 6.00 Build 0)  -->
<svg version="1.1" id="Layer_1" xmlns="http://www.w3.org/2000/svg" xmlns:xlink="http://www.w3.org/1999/xlink" x="0px" y="0px"
	 viewBox="0 0 266 73" style="enable-background:new 0 0 266 73;" xml:space="preserve">
<style type="text/css">
	.st0{fill:#F15D66;}
	.st1{fill:#0A1020;}
	.st2{fill:#F15D66;}
	.st3{fill:#BAE9D2;}
</style>
<g>
	<path class="st0" d="M92,51v8.6c0,0.8-6.4,0.9-6.4,0V33.1c0-0.8,6.4-1,6.4,0v15.5c7.4-1.7,10.5-20.5-1.5-20.5
		c-10.3,0-11.3,13.4-7.2,13.4c1,0,0.3,2.7-2.9,2.7c-7.4,0-6.8-19.2,11.1-19.2C109.2,25,106.8,50,92,51z"/>
	<path class="st0" d="M112.6,57.3c-9.5,0-9.9-21.4,0.4-21.4C123.2,35.9,121.2,57.3,112.6,57.3z M114.3,39.7c-3,0-3.7,11.2-0.2,11.2
		C117,50.9,117,39.7,114.3,39.7z"/>
	<path class="st0" d="M159.9,46c0,6.7-3.2,11.4-7.9,11.4c-3.5,0-5.8-2.7-5.8-11c0-4.5,0.3-6.6-1-6.6c-3.1,0-4.2,16.4-4.2,16.4
		c0,0.8-6.4,0.9-6.4,0c0,0,0-9.2,0-11.5c0-2.3,0.1-4.9-1.1-4.9c-3.1,0-4.2,16.4-4.2,16.4c0,0.8-6.4,0.9-6.4,0V37.3
		c0-0.8,6.4-1,6.4,0v3.4c1.2-2.6,3.1-4.6,6.1-4.6c2.8,0,4.9,1.4,5.4,5c1.2-2.9,3.1-5,6.3-5c3.2,0,5.5,1.9,5.5,6.9
		c0,6.9,0.4,8.2,1.8,8.2c2,0,2.6-2.6,2.6-5.2C157.1,44.9,159.9,44.7,159.9,46z"/>
	<path class="st0" d="M165.1,57.3c-9.5,0-9.9-21.4,0.4-21.4C175.8,35.9,173.8,57.3,165.1,57.3z M166.9,39.7c-3,0-3.7,11.2-0.2,11.2
		C169.5,50.9,169.6,39.7,166.9,39.7z"/>
	<path class="st1" d="M201,45.9c0,6.7-3.2,11.4-7.9,11.4c-2.8,0-4.8-2.3-5.5-5.8c-1.3,3.2-3.1,5.8-5.6,5.8c-9.6,0-8.3-21.4,1.3-21.4
		c1.8,0,3.1,0.7,4,1.7c0-2.9,0-5.9,0-8.4c0-0.8,6.4-0.9,6.4,0s0,16.7,0,18.5c0,1.8,0.4,3.4,1.8,3.4c2,0,2.6-2.6,2.6-5.2
		C198.2,44.7,201,44.6,201,45.9z M187.4,42.5C187.4,42.4,187.4,42.4,187.4,42.5c-0.6-1.4-1.5-2.8-2.6-2.8c-3,0-4.1,11.2-1.1,11.2
		C185.3,50.9,186.6,46.3,187.4,42.5z"/>
	<path class="st1" d="M206.3,57.3c-9.5,0-9.9-21.4,0.4-21.4C216.9,35.9,214.9,57.3,206.3,57.3z M208,39.7c-3,0-3.7,11.2-0.2,11.2
		C210.7,50.9,210.8,39.7,208,39.7z"/>
	<path class="st1" d="M222.9,37.2c0,0,0,15.5,0,21.5c0,6.6-3.5,10.5-9.2,10.5c-8.4,0-9.2-7.1-7.9-9.6c0.5-1,5.8-0.9,5.4,0
		c-1,2.2-0.4,5.4,2.2,5.4c3.2,0,3.2-4.1,3.2-8.1c0-4.1,0-19.6,0-19.6C216.5,36.4,222.9,36.2,222.9,37.2z M216.5,31.8
		c0-1.7,1.4-3.1,3.1-3.1c1.7,0,3.1,1.4,3.1,3.1s-1.4,3.1-3.1,3.1C217.8,34.9,216.5,33.5,216.5,31.8z"/>
	<path class="st1" d="M233.1,57.3c-9.5,0-9.9-21.4,0.4-21.4C243.8,35.9,241.7,57.3,233.1,57.3z M234.8,39.7c-3,0-3.7,11.2-0.2,11.2
		C237.5,50.9,237.6,39.7,234.8,39.7z"/>
	<path class="st1" d="M260.7,48.3h-6v6c0,0.7-3.5,0.8-3.5,0v-6h-6c-0.7,0-0.8-3.5,0-3.5h6v-6c0-0.7,3.5-0.8,3.5,0v6h6
		C261.4,44.8,261.6,48.3,260.7,48.3z"/>
</g>
<path class="st2" d="M67.5,47.9c0.3,7.5-4.3,14.7-10.5,19c-5.2,3.6-11.5,5.4-17.9,5.3c-6.3,0.1-12.7-1.6-17.8-5.3
	c-6.2-4.3-10.8-11.5-10.5-19c0.2-4.5,2.2-8.8,5.3-12c1.5-1.5,3.2-2.8,5.1-3.7c1.3-0.7,2.8-1.2,4.2-1.5c3-0.6,6.2-0.3,9.2,0.7
	c0.4,0.1,0.9,0.3,1.3,0.5c0,0,0,0,0,0c0.3,0.1,0.6,0.2,0.9,0.3c1.5,0.5,3.2,0.5,4.7,0c0.3-0.1,0.6-0.2,0.9-0.3c0,0,0,0,0,0
	c0.3-0.1,0.6-0.2,0.9-0.3h0c3-1.1,6.4-1.4,9.6-0.8c1.5,0.3,2.9,0.8,4.2,1.5c1.9,0.9,3.6,2.2,5.1,3.7C65.3,39.2,67.3,43.5,67.5,47.9z
	"/>
<path class="st3" d="M55.3,30.8c0-3.3-7.2-6-16.1-6S23,27.5,23,30.8c0,0.2,0,0.4,0.1,0.5c0,0.1-0.1,0.3-0.1,0.4c0,2,3.6,3.7,8.8,4.5
	c0,0.1,0,0.3,0,0.4c0,2.8,3.5,5.1,7.8,5.1s7.8-2.3,7.8-5.1c0-0.2,0-0.4-0.1-0.6c4.7-0.9,7.9-2.5,7.9-4.3c0-0.1,0-0.3-0.1-0.4
	C55.2,31.2,55.3,31,55.3,30.8z"/>
<path class="st1" d="M44.4,17.1l-2.6,11.3h-4.5l2.9-12.3c0.2-0.6,0.8-1,1.4-0.9l1.9,0.5C44.2,15.8,44.6,16.4,44.4,17.1z"/>
<g id="XMLID_347_">
	<g>
		<path class="st1" d="M62.2,36h-46c1.5-1.5,3.2-2.8,5.1-3.7h35.9C59,33.2,60.7,34.4,62.2,36z"/>
		<path id="XMLID_25_" class="st1" d="M42.7,53.9l-4.9-18c-0.2-0.7,0.2-1.5,1-1.7l1.3-0.4c0.7-0.2,1.5,0.2,1.7,1l4.9,18
			c0.2,0.7-0.2,1.5-1,1.7l-1.3,0.4C43.7,55,42.9,54.6,42.7,53.9z"/>
		<path id="XMLID_24_" class="st1" d="M35,54.1l5-18.3c0.2-0.7-0.2-1.4-0.9-1.6l-1.4-0.4c-0.7-0.2-1.4,0.2-1.6,0.9l-5,18.3
			c-0.2,0.7,0.2,1.4,0.9,1.6l1.4,0.4C34.1,55.3,34.8,54.9,35,54.1z"/>
		<circle id="XMLID_23_" class="st1" cx="38.9" cy="34.3" r="5.2"/>
	</g>
</g>
</svg>
